# 3ds Max Wavefront OBJ Exporter v0.97b - (c)2007 guruware
# File Created: 04.07.2011 15:19:50

mtllib classic-lamppost.mtl

#
# object Light_post_Light_post_stainless_steel
#

v  -2.6234 13.3299 -1.4659
v  -3.3206 13.3299 -1.3406
v  -3.3206 12.8165 -1.3406
v  -2.6234 12.8165 -1.4659
v  -3.7778 13.3299 -1.8817
v  -3.7778 12.8165 -1.8817
v  -3.5377 13.3299 -2.5482
v  -3.5377 12.8165 -2.5482
v  -2.8405 13.3299 -2.6735
v  -2.8405 12.8165 -2.6735
v  -2.3833 13.3299 -2.1324
v  -2.3833 12.8165 -2.1324
v  3.6820 13.3299 2.4757
v  2.9977 13.3299 2.2923
v  2.9977 12.8165 2.2923
v  3.6820 12.8165 2.4757
v  2.8144 13.3299 1.6081
v  2.8144 12.8165 1.6081
v  3.3153 13.3299 1.1072
v  3.3153 12.8165 1.1072
v  3.9996 13.3299 1.2905
v  3.9996 12.8165 1.2905
v  4.1829 13.3299 1.9748
v  4.1829 12.8165 1.9748
v  -2.3833 13.3299 1.6750
v  -2.6234 13.3299 2.3415
v  -2.6234 12.8165 2.3415
v  -2.3833 12.8165 1.6750
v  -3.3206 13.3299 2.4668
v  -3.3206 12.8165 2.4668
v  -3.7778 13.3299 1.9256
v  -3.7778 12.8165 1.9256
v  -3.5377 13.3299 1.2592
v  -3.5377 12.8165 1.2592
v  -2.8405 13.3299 1.1338
v  -2.8405 12.8165 1.1338
v  4.0404 13.3299 -1.5418
v  3.3743 13.3299 -1.3008
v  3.3743 12.8165 -1.3008
v  4.0404 12.8165 -1.5418
v  2.8325 13.3299 -1.7572
v  2.8325 12.8165 -1.7572
v  2.9569 13.3299 -2.4546
v  2.9569 12.8165 -2.4546
v  3.6230 13.3299 -2.6956
v  3.6230 12.8165 -2.6956
v  4.1648 13.3299 -2.2392
v  4.1648 12.8165 -2.2392
v  0.4568 13.3299 3.0375
v  0.9140 13.3299 3.5787
v  0.9140 12.8165 3.5787
v  0.4568 12.8165 3.0375
v  0.6739 13.3299 4.2452
v  0.6739 12.8165 4.2452
v  -0.0233 13.3299 4.3705
v  -0.0233 12.8165 4.3705
v  -0.4805 13.3299 3.8293
v  -0.4805 12.8165 3.8293
v  -0.2404 13.3299 3.1629
v  -0.2404 12.8165 3.1629
v  0.7177 13.3299 -4.3939
v  0.9010 13.3299 -3.7096
v  0.9010 12.8165 -3.7096
v  0.7177 12.8165 -4.3939
v  0.4001 13.3299 -3.2087
v  0.4001 12.8165 -3.2087
v  -0.2842 13.3299 -3.3920
v  -0.2842 12.8165 -3.3920
v  -0.4675 13.3299 -4.0763
v  -0.4675 12.8165 -4.0763
v  0.0334 13.3299 -4.5772
v  0.0334 12.8165 -4.5772
v  -3.0805 13.3299 -2.0071
v  3.4986 13.3299 1.7914
v  -3.0805 13.3299 1.8003
v  3.4986 13.3299 -1.9982
v  0.2168 13.3299 3.7040
v  0.2168 13.3299 -3.8930
v  -3.0805 12.8165 -2.0071
v  3.4986 12.8165 1.7914
v  -3.0805 12.8165 1.8003
v  3.4986 12.8165 -1.9982
v  0.2168 12.8165 3.7040
v  0.2168 12.8165 -3.8930
# 84 vertices

vn 0.6453 0.0000 0.7639
vn -0.3389 0.0000 0.9408
vn -0.9842 0.0000 0.1769
vn -0.6453 0.0000 -0.7639
vn 0.3389 0.0000 -0.9408
vn 0.9842 0.0000 -0.1769
vn 0.2588 0.0000 0.9659
vn -0.7071 0.0000 0.7071
vn -0.9659 0.0000 -0.2588
vn -0.2588 0.0000 -0.9659
vn 0.7071 0.0000 -0.7071
vn 0.9659 0.0000 0.2588
vn 0.7648 0.0000 0.6443
vn -0.1756 0.0000 0.9845
vn -0.9404 0.0000 0.3402
vn -0.7648 0.0000 -0.6443
vn 0.1756 -0.0000 -0.9845
vn 0.1756 0.0000 -0.9845
vn 0.9403 -0.0000 -0.3402
vn 0.9404 -0.0000 -0.3402
vn 0.0000 1.0000 -0.0000
# 21 vertex normals

g Light_post_Light_post_stainless_steel
usemtl _classic_lamppoststainless_steel
s 1
f 1//1 2//2 3//2 4//1 
f 2//2 5//3 6//3 3//2 
f 5//3 7//4 8//4 6//3 
f 7//4 9//5 10//5 8//4 
f 9//5 11//6 12//6 10//5 
f 4//1 12//6 11//6 1//1 
f 13//7 14//8 15//8 16//7 
f 14//8 17//9 18//9 15//8 
f 17//9 19//10 20//10 18//9 
f 19//10 21//11 22//11 20//10 
f 21//11 23//12 24//12 22//11 
f 16//7 24//12 23//12 13//7 
f 25//6 26//1 27//1 28//6 
f 26//1 29//2 30//2 27//1 
f 29//2 31//3 32//3 30//2 
f 31//3 33//4 34//4 32//3 
f 33//4 35//5 36//5 34//4 
f 28//6 36//5 35//5 25//6 
f 37//13 38//14 39//14 40//13 
f 38//14 41//15 42//15 39//14 
f 41//15 43//16 44//16 42//15 
f 43//16 45//17 46//18 44//16 
f 45//17 47//19 48//20 46//18 
f 40//13 48//20 47//19 37//13 
f 49//5 50//6 51//6 52//5 
f 50//6 53//1 54//1 51//6 
f 53//1 55//2 56//2 54//1 
f 55//2 57//3 58//3 56//2 
f 57//3 59//4 60//4 58//3 
f 52//5 60//4 59//4 49//5 
f 61//11 62//12 63//12 64//11 
f 62//12 65//7 66//7 63//12 
f 65//7 67//8 68//8 66//7 
f 67//8 69//9 70//9 68//8 
f 69//9 71//10 72//10 70//9 
f 64//11 72//10 71//10 61//11 
f 73//21 2//21 1//21 
f 73//21 5//21 2//21 
f 73//21 7//21 5//21 
f 73//21 9//21 7//21 
f 73//21 11//21 9//21 
f 73//21 1//21 11//21 
f 74//21 14//21 13//21 
f 74//21 17//21 14//21 
f 74//21 19//21 17//21 
f 74//21 21//21 19//21 
f 74//21 23//21 21//21 
f 74//21 13//21 23//21 
f 75//21 26//21 25//21 
f 75//21 29//21 26//21 
f 75//21 31//21 29//21 
f 75//21 33//21 31//21 
f 75//21 35//21 33//21 
f 75//21 25//21 35//21 
f 76//21 38//21 37//21 
f 76//21 41//21 38//21 
f 76//21 43//21 41//21 
f 76//21 45//21 43//21 
f 76//21 47//21 45//21 
f 76//21 37//21 47//21 
f 77//21 50//21 49//21 
f 77//21 53//21 50//21 
f 77//21 55//21 53//21 
f 77//21 57//21 55//21 
f 77//21 59//21 57//21 
f 77//21 49//21 59//21 
f 78//21 62//21 61//21 
f 78//21 65//21 62//21 
f 78//21 67//21 65//21 
f 78//21 69//21 67//21 
f 78//21 71//21 69//21 
f 78//21 61//21 71//21 
f 79//21 3//21 4//21 
f 79//21 6//21 3//21 
f 79//21 8//21 6//21 
f 79//21 10//21 8//21 
f 79//21 12//21 10//21 
f 12//21 79//21 4//21 
f 80//21 15//21 16//21 
f 80//21 18//21 15//21 
f 80//21 20//21 18//21 
f 80//21 22//21 20//21 
f 80//21 24//21 22//21 
f 24//21 80//21 16//21 
f 81//21 27//21 28//21 
f 81//21 30//21 27//21 
f 81//21 32//21 30//21 
f 81//21 34//21 32//21 
f 81//21 36//21 34//21 
f 36//21 81//21 28//21 
f 82//21 39//21 40//21 
f 82//21 42//21 39//21 
f 82//21 44//21 42//21 
f 82//21 46//21 44//21 
f 82//21 48//21 46//21 
f 48//21 82//21 40//21 
f 83//21 51//21 52//21 
f 83//21 54//21 51//21 
f 83//21 56//21 54//21 
f 83//21 58//21 56//21 
f 83//21 60//21 58//21 
f 60//21 83//21 52//21 
f 84//21 63//21 64//21 
f 84//21 66//21 63//21 
f 84//21 68//21 66//21 
f 84//21 70//21 68//21 
f 84//21 72//21 70//21 
f 72//21 84//21 64//21 
# 36 polygons - 72 triangles

#
# object Light_post_Light_post_concrete
#

v  9.1296 -0.3379 8.8126
v  -8.6860 -0.3379 8.8126
v  -8.6860 -0.3379 -9.0030
v  9.1296 -0.3379 -9.0030
v  -5.7494 11.2685 -6.0663
v  -5.7494 11.2685 5.8760
v  6.1929 11.2685 5.8760
v  6.1930 11.2685 -6.0663
# 8 vertices

vn 0.6316 -0.4497 0.6316
vn -0.6316 -0.4497 0.6316
vn -0.6316 -0.4497 -0.6316
vn 0.6316 -0.4497 -0.6316
vn -0.5024 0.7037 -0.5024
vn -0.5024 0.7037 0.5024
vn 0.5024 0.7037 0.5024
vn 0.5024 0.7037 -0.5024
# 8 vertex normals

g Light_post_Light_post_concrete
usemtl _classic_lamppostconcrete
s 1
f 85//22 86//23 87//24 88//25 
f 89//26 90//27 91//28 92//29 
f 92//29 91//28 85//22 88//25 
f 91//28 90//27 86//23 85//22 
f 90//27 89//26 87//24 86//23 
f 88//25 87//24 89//26 92//29 
# 6 polygons

#
# object Light_post_Light_post_Black_paint
#

v  -7.9447 153.1711 -8.2616
v  -7.9447 153.1711 -6.6448
v  -8.0982 154.7068 -6.7680
v  -8.0982 154.7068 -8.4152
v  8.5418 154.7068 -6.7680
v  8.3882 153.1710 -6.6449
v  8.3882 153.1711 -8.2616
v  8.5418 154.7068 -8.4152
v  -6.4341 154.7068 -8.4152
v  -6.3108 153.1711 -8.2616
v  -4.8982 135.5068 -6.4952
v  -4.8981 135.5068 -5.2281
v  -6.1782 135.5068 -5.2282
v  -6.1782 135.5068 -6.4952
v  -6.1782 135.5068 6.3048
v  -4.8978 135.5068 6.3048
v  -5.0249 137.0960 6.4638
v  -6.3372 137.0960 6.4637
v  8.3881 153.1705 8.0712
v  8.5418 154.7068 8.2248
v  6.8946 154.7068 8.2248
v  6.7715 153.1705 8.0712
v  6.7807 137.0965 -6.6541
v  5.4823 137.0965 -6.6541
v  6.7715 153.1711 -8.2616
v  6.7807 137.0965 6.4638
v  6.7807 137.0965 5.1519
v  8.3881 153.1705 6.4378
v  -6.3372 137.0960 -6.6541
v  -6.3372 137.0960 -5.3556
v  6.6218 135.5068 6.3048
v  6.6218 135.5068 5.0251
v  6.6218 135.5068 -6.4952
v  5.3544 135.5068 -6.4952
v  5.4819 137.0964 6.4638
v  -6.3108 153.1710 8.0712
v  -7.9447 153.1711 8.0712
v  -5.0249 137.0960 -6.6541
v  -6.4341 154.7068 8.2248
v  -8.0982 154.7068 8.2248
v  5.3544 135.5068 6.3048
v  5.3544 135.5068 -5.2281
v  6.8946 154.7068 -8.4152
v  6.6218 135.5068 -5.2281
v  5.3544 135.5068 5.0248
v  -4.8978 135.5068 5.0251
v  6.7807 137.0965 -5.3556
v  -6.3372 137.0960 5.1519
v  -6.1782 135.5068 5.0248
v  -7.9447 153.1711 6.4384
v  8.5418 154.7068 6.5607
v  -8.0982 154.7068 6.5607
v  5.4823 137.0965 -5.9982
v  6.7715 153.1711 -7.4450
v  -5.0249 137.0960 -5.9982
v  6.7715 153.1705 7.2546
v  5.4819 137.0964 5.8079
v  -6.3108 153.1710 7.2546
v  -5.0249 137.0960 5.8079
v  -6.3108 153.1711 -7.4450
v  -5.6813 137.0960 -5.3556
v  -7.1280 153.1711 -6.6448
v  -7.1280 153.1711 6.4384
v  -5.6813 137.0960 5.1519
v  7.5715 153.1705 6.4378
v  7.5715 153.1710 -6.6449
v  6.1248 137.0965 -5.3556
v  6.1248 137.0965 5.1519
v  -9.3782 154.7068 -9.6952
v  9.8218 154.7068 -9.6952
v  9.8218 154.7068 9.5048
v  -9.3782 154.7068 9.5048
v  -9.3782 155.2424 9.5048
v  9.8218 155.2424 9.5048
v  0.2218 157.8751 -0.0952
v  -9.3782 155.2424 -9.6952
v  9.8218 155.2424 -9.6952
v  3.8943 12.7884 -3.7685
v  5.2373 12.7884 -1.4424
v  5.2373 11.3208 -1.4423
v  3.8943 11.3208 -3.7685
v  5.2373 12.7884 1.2436
v  5.2373 11.3208 1.2436
v  3.8943 12.7884 3.5698
v  3.8943 11.3208 3.5698
v  1.5682 12.7884 4.9128
v  1.5682 11.3208 4.9128
v  -1.1178 12.7884 4.9128
v  -1.1178 11.3208 4.9128
v  -3.4439 12.7884 3.5698
v  -3.4439 11.3208 3.5698
v  -4.7869 12.7884 1.2436
v  -4.7869 11.3208 1.2436
v  -4.7869 12.7884 -1.4423
v  -4.7869 11.3208 -1.4423
v  -3.4439 12.7884 -3.7685
v  -3.4439 11.3208 -3.7685
v  -1.1178 12.7884 -5.1115
v  -1.1178 11.3208 -5.1115
v  1.5682 12.7884 -5.1115
v  1.5682 11.3208 -5.1115
v  0.7795 133.9349 -2.1681
v  1.7396 133.9349 -1.6138
v  2.2412 12.7940 -2.1154
v  0.9631 12.7940 -2.8533
v  -0.3291 133.9387 -2.1681
v  -0.5127 12.7940 -2.8533
v  -1.2892 133.9349 -1.6138
v  -1.7908 12.7940 -2.1154
v  -1.8435 133.9387 -0.6537
v  -2.5287 12.7940 -0.8373
v  -1.8435 133.9349 0.4550
v  -2.5287 12.7940 0.6386
v  -1.2892 133.9349 1.4151
v  -1.7908 12.7940 1.9166
v  -0.3291 133.9349 1.9694
v  -0.5127 12.7940 2.6546
v  0.7795 133.9349 1.9694
v  0.9631 12.7940 2.6546
v  1.7396 133.9349 1.4151
v  2.2412 12.7940 1.9166
v  2.2940 133.9349 0.4550
v  2.9791 12.7940 0.6386
v  2.2940 133.9349 -0.6537
v  2.9791 12.7940 -0.8373
v  1.6471 156.2957 -1.5212
v  1.6364 158.8679 -1.5106
v  2.1530 158.8679 -0.6159
v  2.1675 156.2957 -0.6198
v  2.1530 158.8679 0.4172
v  2.1675 156.2957 0.4211
v  1.6364 158.8679 1.3118
v  1.6471 156.2957 1.3225
v  0.7418 158.8679 1.8284
v  0.7456 156.2957 1.8429
v  -0.2913 158.8679 1.8284
v  -0.2952 156.2957 1.8429
v  -1.1860 158.8679 1.3118
v  -1.1966 156.2957 1.3225
v  -1.7025 158.8679 0.4172
v  -1.7171 156.2957 0.4211
v  -1.7025 158.8679 -0.6159
v  -1.7170 156.3002 -0.6198
v  -1.1860 158.8679 -1.5106
v  -1.1966 156.2957 -1.5212
v  -0.2913 158.8679 -2.0271
v  -0.2952 156.3002 -2.0416
v  0.7418 158.8679 -2.0271
v  0.7456 156.2957 -2.0416
v  1.1121 135.5098 -3.4094
v  2.6483 135.5098 -2.5225
v  2.6483 133.9338 -2.5225
v  1.1121 133.9338 -3.4094
v  -0.6617 135.5104 -3.4093
v  -0.6617 133.9398 -3.4093
v  -2.1979 135.5098 -2.5225
v  -2.1979 133.9338 -2.5225
v  -3.0848 135.5104 -0.9863
v  -3.0848 133.9398 -0.9863
v  -3.0848 135.5098 0.7876
v  -3.0848 133.9338 0.7876
v  -2.1979 135.5098 2.3237
v  -2.1979 133.9338 2.3237
v  -0.6617 135.5098 3.2106
v  -0.6617 133.9338 3.2106
v  1.1121 135.5098 3.2106
v  1.1121 133.9338 3.2106
v  2.6483 135.5098 2.3237
v  2.6483 133.9338 2.3237
v  3.5352 135.5098 0.7876
v  3.5352 133.9338 0.7876
v  3.5352 135.5098 -0.9863
v  3.5352 133.9338 -0.9863
v  0.5868 159.3522 -1.4488
v  1.2131 159.3522 -1.0872
v  -0.1364 159.3522 -1.4488
v  -0.7626 159.3522 -1.0872
v  -1.1242 159.3522 -0.4609
v  -1.1242 159.3522 0.2622
v  -0.7626 159.3522 0.8885
v  -0.1364 159.3522 1.2501
v  0.5868 159.3522 1.2501
v  1.2131 159.3522 0.8885
v  1.5746 159.3522 0.2622
v  1.5746 159.3522 -0.4609
v  0.2252 159.7154 -0.0994
# 186 vertices

vn -0.9950 -0.0995 -0.0000
vn 0.9950 -0.0995 0.0000
vn 0.0000 -0.0995 -0.9950
vn 0.0000 -1.0000 -0.0000
vn -0.0000 -0.0995 0.9950
vn 0.0000 -0.0995 0.9950
vn -0.0000 -0.0995 -0.9950
vn 0.9950 -0.0995 -0.0000
vn -0.0000 -1.0000 0.0000
vn -0.9968 0.0799 -0.0000
vn -0.0000 1.0000 -0.0000
vn -0.9968 0.0800 -0.0000
vn -0.0000 -1.0000 -0.0000
vn 0.9968 0.0797 -0.0000
vn 0.0000 0.0799 0.9968
vn 0.0000 1.0000 -0.0000
vn 0.0000 1.0000 0.0000
vn 0.0000 0.0797 -0.9968
vn 0.0000 0.0798 -0.9968
vn 0.0000 0.9644 0.2645
vn 0.0000 0.9644 -0.2645
vn 0.2645 0.9644 -0.0000
vn -0.2645 0.9644 -0.0000
vn -1.0000 0.0000 -0.0000
vn 0.0000 0.0000 -1.0000
vn 1.0000 0.0000 -0.0000
vn 0.0000 0.0000 1.0000
vn 0.7071 -0.0000 -0.7071
vn 0.9659 -0.0000 -0.2588
vn 0.9659 0.0000 0.2588
vn 0.7071 0.0000 0.7071
vn 0.2588 0.0000 0.9659
vn -0.2588 0.0000 0.9659
vn -0.7071 0.0000 0.7071
vn -0.9659 -0.0000 0.2588
vn -0.9659 0.0000 -0.2588
vn -0.7071 -0.0000 -0.7071
vn -0.2588 -0.0000 -0.9659
vn 0.2588 -0.0000 -0.9659
vn 0.2585 0.0059 -0.9660
vn 0.7071 0.0059 -0.7071
vn 0.2588 0.0059 -0.9659
vn -0.2588 0.0059 -0.9659
vn -0.7071 0.0059 -0.7071
vn -0.9659 0.0059 -0.2588
vn -0.9660 0.0059 0.2585
vn -0.9659 0.0059 0.2588
vn -0.7071 0.0059 0.7071
vn -0.2588 0.0059 0.9659
vn 0.2588 0.0059 0.9659
vn 0.7071 0.0059 0.7071
vn 0.9659 0.0059 0.2588
vn 0.9659 0.0059 -0.2588
vn 0.6456 0.4080 -0.6456
vn 0.8819 0.4080 -0.2363
vn 0.8819 0.4080 0.2363
vn 0.6456 0.4080 0.6456
vn 0.2363 0.4080 0.8819
vn -0.2363 0.4080 0.8819
vn -0.6456 0.4080 0.6456
vn -0.8819 0.4080 0.2363
vn -0.9658 0.0059 0.2592
vn -0.8819 0.4080 -0.2363
vn -0.6456 0.4080 -0.6456
vn -0.2363 0.4080 -0.8819
vn 0.2363 0.4080 -0.8819
vn 0.2592 0.0059 -0.9658
vn 0.0023 1.0000 -0.0006
vn 0.0017 1.0000 -0.0017
vn 0.0023 1.0000 0.0006
vn 0.0017 1.0000 0.0017
vn 0.0006 1.0000 0.0023
vn -0.0006 1.0000 0.0023
vn -0.0017 1.0000 0.0017
vn -0.0023 1.0000 0.0006
vn -0.0023 1.0000 -0.0006
vn -0.0017 1.0000 -0.0017
vn -0.0006 1.0000 -0.0023
vn 0.0006 1.0000 -0.0023
vn 0.2588 0.0000 -0.9659
vn 0.7071 0.0000 -0.7071
vn 0.2591 0.0000 -0.9659
vn -0.2588 0.0000 -0.9659
vn -0.7071 0.0000 -0.7071
vn -0.9659 0.0000 0.2588
vn -0.9659 0.0000 0.2591
vn 0.9659 0.0000 -0.2588
vn 0.0008 1.0000 -0.0002
vn 0.0006 1.0000 -0.0006
vn 0.0008 1.0000 0.0002
vn 0.0006 1.0000 0.0006
vn 0.0002 1.0000 0.0008
vn -0.0002 1.0000 0.0008
vn -0.0006 1.0000 0.0006
vn -0.0004 1.0000 0.0019
vn -0.0006 1.0000 -0.0006
vn 0.0019 1.0000 -0.0004
vn 0.1236 0.8786 -0.4613
vn 0.3377 0.8786 -0.3377
vn -0.1236 0.8786 -0.4613
vn -0.3377 0.8786 -0.3377
vn -0.4613 0.8786 -0.1236
vn -0.4613 0.8786 0.1236
vn -0.3377 0.8786 0.3377
vn -0.1236 0.8786 0.4613
vn 0.1236 0.8786 0.4613
vn 0.3377 0.8786 0.3377
vn 0.4613 0.8786 0.1236
vn 0.4613 0.8786 -0.1236
# 109 vertex normals

g Light_post_Light_post_Black_paint
usemtl _classic_lamppostBlack_paint
s off
f 93//30 94//30 95//30 96//30 
f 97//31 98//31 99//31 100//31 
f 101//32 102//32 93//32 96//32 
f 103//33 104//33 105//33 106//33 
f 107//34 108//34 109//34 110//34 
f 111//35 112//35 113//35 114//35 
f 115//36 116//36 117//36 99//36 
f 118//31 119//31 120//31 111//31 
f 121//30 122//30 94//30 93//30 
f 106//30 105//30 122//30 121//30 
f 123//37 124//37 119//37 118//37 
f 125//36 126//36 116//36 115//36 
f 118//35 111//35 114//35 127//35 
f 128//35 129//35 110//35 109//35 
f 106//32 121//32 130//32 103//32 
f 121//32 93//32 102//32 130//32 
f 131//35 132//35 129//35 128//35 
f 133//34 127//34 109//34 108//34 
f 126//38 134//38 104//38 103//38 
f 135//36 117//36 102//36 101//36 
f 135//32 100//32 99//32 117//32 
f 125//33 136//33 134//33 126//33 
f 123//35 118//35 127//35 133//35 
f 103//32 130//32 116//32 126//32 
f 131//34 128//34 114//34 113//34 
f 123//33 133//33 137//33 124//33 
f 133//33 108//33 138//33 137//33 
f 136//37 139//37 119//37 124//37 
f 107//30 110//30 140//30 141//30 
f 110//30 129//30 142//30 140//30 
f 108//33 107//33 141//33 138//33 
f 143//31 112//31 111//31 120//31 
f 129//30 132//30 144//30 142//30 
f 115//31 99//31 98//31 139//31 
f 125//37 115//37 139//37 136//37 
f 124//38 137//38 134//38 136//38 
f 137//38 138//38 104//38 134//38 
f 141//30 140//30 122//30 105//30 
f 138//33 141//33 105//33 104//33 
f 143//37 120//37 98//37 97//37 
f 142//30 144//30 95//30 94//30 
f 116//39 145//39 146//39 117//39 
f 130//40 147//40 145//40 116//40 
f 127//41 114//41 148//41 149//41 
f 128//42 150//42 148//42 114//42 
f 127//40 149//40 151//40 109//40 
f 117//42 146//42 152//42 102//42 
f 130//43 102//43 152//43 147//43 
f 109//43 151//43 150//43 128//43 
f 122//44 153//44 154//44 94//44 
f 94//33 154//33 155//33 142//33 
f 140//45 156//45 153//45 122//45 
f 120//33 157//33 158//33 98//33 
f 139//46 159//46 160//46 119//46 
f 139//44 98//44 158//44 159//44 
f 119//47 160//47 157//47 120//47 
f 140//48 142//48 155//48 156//48 
f 161//33 162//33 163//33 164//33 
f 165//49 166//49 167//49 
f 168//50 167//50 169//50 
f 166//51 169//51 167//51 
f 168//52 165//52 167//52 
f 165//53 168//53 161//53 164//53 
f 168//54 169//54 162//54 161//54 
f 169//55 166//55 163//55 162//55 
f 166//56 165//56 164//56 163//56 
f 166//45 169//45 168//45 
f 168//45 165//45 166//45 
s 1
f 170//57 171//58 172//58 173//57 
f 171//58 174//59 175//59 172//58 
f 174//59 176//60 177//60 175//59 
f 176//60 178//61 179//61 177//60 
f 178//61 180//62 181//62 179//61 
f 180//62 182//63 183//63 181//62 
f 182//63 184//64 185//64 183//63 
f 184//64 186//65 187//65 185//64 
f 186//65 188//66 189//66 187//65 
f 188//66 190//67 191//67 189//66 
f 190//67 192//68 193//68 191//67 
f 173//57 193//68 192//68 170//57 
f 194//69 195//70 196//70 197//71 
f 198//72 194//69 197//71 199//72 
f 200//73 198//72 199//72 201//73 
f 202//74 200//73 201//73 203//74 
f 204//75 202//74 203//74 205//76 
f 206//77 204//75 205//76 207//77 
f 208//78 206//77 207//77 209//78 
f 210//79 208//78 209//78 211//79 
f 212//80 210//79 211//79 213//80 
f 214//81 212//80 213//80 215//81 
f 216//82 214//81 215//81 217//82 
f 195//70 216//82 217//82 196//70 
f 218//70 219//83 220//84 221//82 
f 221//82 220//84 222//85 223//81 
f 223//81 222//85 224//86 225//80 
f 225//80 224//86 226//87 227//79 
f 227//79 226//87 228//88 229//78 
f 229//78 228//88 230//89 231//77 
f 231//77 230//89 232//90 233//91 
f 233//91 232//90 234//92 235//74 
f 235//74 234//92 236//93 237//73 
f 237//73 236//93 238//94 239//72 
f 239//72 238//94 240//95 241//96 
f 241//96 240//95 219//83 218//70 
f 171//97 170//98 196//98 217//97 
f 174//99 171//97 217//97 215//99 
f 176//100 174//99 215//99 213//100 
f 178//101 176//100 213//100 211//101 
f 180//102 178//101 211//101 209//102 
f 182//103 180//102 209//102 207//103 
f 184//104 182//103 207//103 205//104 
f 186//105 184//104 205//104 203//105 
f 188//106 186//105 203//105 201//106 
f 190//107 188//106 201//106 199//107 
f 192//108 190//107 199//107 197//108 
f 170//98 192//108 197//108 196//98 
f 242//109 243//110 244//110 245//111 
f 246//112 242//109 245//111 247//112 
f 248//113 246//112 247//112 249//113 
f 250//65 248//113 249//113 251//65 
f 252//114 250//65 251//65 253//115 
f 254//63 252//114 253//115 255//63 
f 256//62 254//63 255//63 257//62 
f 258//61 256//62 257//62 259//61 
f 260//60 258//61 259//61 261//60 
f 262//59 260//60 261//60 263//59 
f 264//116 262//59 263//59 265//116 
f 243//110 264//116 265//116 244//110 
f 216//117 265//117 244//118 195//118 
f 214//119 263//119 265//117 216//117 
f 212//120 261//120 263//119 214//119 
f 210//121 259//121 261//120 212//120 
f 208//122 257//122 259//121 210//121 
f 206//123 255//123 257//122 208//122 
f 204//124 253//124 255//123 206//123 
f 202//119 251//119 253//124 204//124 
f 200//125 249//125 251//119 202//119 
f 198//121 247//121 249//125 200//125 
f 194//126 245//126 247//121 198//121 
f 195//118 244//118 245//126 194//126 
f 266//127 267//128 219//83 240//95 
f 268//129 266//127 240//95 238//94 
f 269//130 268//129 238//94 236//93 
f 270//131 269//130 236//93 234//92 
f 271//132 270//131 234//92 232//90 
f 272//133 271//132 232//90 230//89 
f 273//134 272//133 230//89 228//88 
f 274//135 273//134 228//88 226//87 
f 275//136 274//135 226//87 224//86 
f 276//137 275//136 224//86 222//85 
f 277//138 276//137 222//85 220//84 
f 267//128 277//138 220//84 219//83 
f 267//128 278//40 277//138 
f 277//138 278//40 276//137 
f 276//137 278//40 275//136 
f 275//136 278//40 274//135 
f 274//135 278//40 273//134 
f 273//134 278//40 272//133 
f 272//133 278//40 271//132 
f 271//132 278//40 270//131 
f 270//131 278//40 269//130 
f 269//130 278//40 268//129 
f 268//129 278//40 266//127 
f 266//127 278//40 267//128 
# 146 polygons - 18 triangles

#
# object Light_post_Light_post_Glass
#

v  -6.3108 153.1710 7.2546
v  -5.0249 137.0960 5.8079
v  5.4819 137.0964 5.8079
v  6.7715 153.1705 7.2546
v  -5.0249 137.0960 -5.9982
v  -6.3108 153.1711 -7.4450
v  6.7715 153.1711 -7.4450
v  5.4823 137.0965 -5.9982
v  6.1248 137.0965 -5.3556
v  7.5715 153.1710 -6.6449
v  7.5715 153.1705 6.4378
v  6.1248 137.0965 5.1519
v  -5.6813 137.0960 5.1519
v  -7.1280 153.1711 6.4384
v  -7.1280 153.1711 -6.6448
v  -5.6813 137.0960 -5.3556
# 16 vertices

vn -0.0000 -0.0896 0.9960
vn 0.0000 -0.0896 -0.9960
vn 0.9960 -0.0896 -0.0000
vn -0.9960 -0.0896 -0.0000
# 4 vertex normals

g Light_post_Light_post_Glass
usemtl _classic_lamppostGlass
s off
f 279//139 280//139 281//139 282//139 
f 283//140 284//140 285//140 286//140 
f 287//141 288//141 289//141 290//141 
f 291//142 292//142 293//142 294//142 
# 4 polygons

